<svg width="88" height="88" viewBox="0 0 88 88" fill="none" xmlns="http://www.w3.org/2000/svg">
<rect width="88" height="88" fill="#454040"/>
<g id="main" clip-path="url(#clip0_0_1)">
<rect width="1728" height="5669" transform="translate(-1136 -5453)" fill="#999D9E"/>
<g id="footer">
<rect width="1728" height="663" transform="translate(-1135 -447)" fill="black"/>
</g>
<g id="Frame">
<path id="Vector" d="M43.9656 6.55616C22.7133 6.54756 5.5 23.7523 5.5 44.9874C5.5 61.7796 16.268 76.0538 31.2641 81.296C33.2836 81.803 32.9742 80.3679 32.9742 79.3882V72.728C21.3125 74.0944 20.8398 66.3773 20.0578 65.0882C18.4766 62.3898 14.7383 61.7023 15.8555 60.4132C18.5109 59.0468 21.218 60.7569 24.3547 65.389C26.6234 68.7491 31.0492 68.1819 33.2922 67.6233C33.782 65.6038 34.8305 63.7991 36.2742 62.3983C24.1914 60.2327 19.1555 52.8593 19.1555 44.0937C19.1555 39.8398 20.5562 35.9296 23.3062 32.7757C21.5531 27.5765 23.4695 23.1249 23.7273 22.4632C28.7203 22.0163 33.9109 26.0382 34.3148 26.3562C37.1508 25.5913 40.3906 25.1874 44.0172 25.1874C47.6609 25.1874 50.9094 25.6085 53.7711 26.3819C54.7422 25.6429 59.5547 22.1882 64.1953 22.6093C64.4445 23.271 66.318 27.6194 64.668 32.7499C67.4523 35.9124 68.8703 39.8569 68.8703 44.1194C68.8703 52.9023 63.8 60.2843 51.6828 62.4155C52.7207 63.4362 53.5448 64.6535 54.1069 65.9962C54.6691 67.3389 54.9581 68.7802 54.957 70.2358V79.9038C55.0258 80.6773 54.957 81.4421 56.2461 81.4421C71.4656 76.3116 82.4226 61.9343 82.4226 44.996C82.4226 23.7522 65.2008 6.55616 43.9656 6.55616Z" fill="white"/>
</g>
</g>
<defs>
<clipPath id="clip0_0_1">
<rect width="1728" height="5669" fill="white" transform="translate(-1136 -5453)"/>
</clipPath>
</defs>
</svg>
